<svg xmlns="http://www.w3.org/2000/svg" viewBox="0 0 87 87"><defs><style>.cls-1{fill:none;}.cls-2{fill:#fff;}</style></defs><g id="Layer_2" data-name="Layer 2"><g id="Layer_1-2" data-name="Layer 1"><rect class="cls-1" width="87" height="87"/><polygon class="cls-2" points="0 7.5 36 7.5 36 21 31.5 25.5 27 25.5 27 61.5 31.5 61.5 36 66 36 79.5 0 79.5 0 66 4.5 61.5 9 61.5 9 25.5 4.5 25.5 0 21 0 7.5"/><polygon class="cls-2" points="87 7.5 46.5 7.5 42 12 42 75 46.5 79.5 87 79.5 87 66 82.5 61.5 64.5 61.5 60 57 60 30 64.5 25.5 82.5 25.5 87 21 87 7.5"/></g></g></svg>