<svg xmlns="http://www.w3.org/2000/svg" viewBox="0 0 508.5 151.5"><defs><style>.cls-1{fill:#fff;}</style></defs><g id="Layer_2" data-name="Layer 2"><g id="Layer_1-2" data-name="Layer 1"><polygon class="cls-1" points="42 0 87 0 87 13.5 82.5 18 73.5 18 73.5 72 55.5 72 55.5 18 46.5 18 42 13.5 42 0"/><polygon class="cls-1" points="424.5 0 469.5 0 469.5 13.5 465 18 456 18 456 72 438 72 438 18 429 18 424.5 13.5 424.5 0"/><polygon class="cls-1" points="235.5 0 199.5 0 195 4.5 195 67.5 199.5 72 231 72 235.5 67.5 235.5 54 213 54 213 49.5 217.5 45 222 45 226.5 40.5 226.5 27 213 27 213 22.5 217.5 18 231 18 235.5 13.5 235.5 0"/><polygon class="cls-1" points="135 72 135 4.5 139.5 0 153 0 171 36 171 4.5 175.5 0 189 0 189 67.5 184.5 72 171 72 153 36 153 67.5 148.5 72 135 72"/><polygon class="cls-1" points="364.5 72 364.5 4.5 369 0 382.5 0 400.5 36 400.5 4.5 405 0 418.5 0 418.5 67.5 414 72 400.5 72 382.5 36 382.5 67.5 378 72 364.5 72"/><path class="cls-1" d="M286.5,45l4.5-4.5V4.5L286.5,0H246l-4.5,4.5V72H255l4.5-4.5v-18L264,45h4.5l9,27h18Zm-27-18V18h9l4.5,4.5L268.5,27Z"/><polygon class="cls-1" points="0 0 36 0 36 13.5 31.5 18 27 18 27 54 31.5 54 36 58.5 36 72 0 72 0 58.5 4.5 54 9 54 9 18 4.5 18 0 13.5 0 0"/><polygon class="cls-1" points="93 0 129 0 129 13.5 124.5 18 120 18 120 54 124.5 54 129 58.5 129 72 93 72 93 58.5 97.5 54 102 54 102 18 97.5 18 93 13.5 93 0"/><polygon class="cls-1" points="306 79.5 351 79.5 351 93 346.5 97.5 337.5 97.5 337.5 151.5 319.5 151.5 319.5 97.5 310.5 97.5 306 93 306 79.5"/><polygon class="cls-1" points="45 79.5 4.5 79.5 0 84 0 147 4.5 151.5 45 151.5 45 138 40.5 133.5 22.5 133.5 18 129 18 102 22.5 97.5 40.5 97.5 45 93 45 79.5"/><polygon class="cls-1" points="291 84 286.5 79.5 273 79.5 273 147 277.5 151.5 309 151.5 313.5 147 313.5 133.5 291 133.5 291 84"/><path class="cls-1" d="M96,79.5H55.5L51,84v63l4.5,4.5H96l4.5-4.5V84Zm-22.5,54L69,129V102l4.5-4.5H78l4.5,4.5v27L78,133.5Z"/><polygon class="cls-1" points="106.5 151.5 106.5 84 111 79.5 124.5 79.5 142.5 115.5 142.5 84 147 79.5 160.5 79.5 160.5 147 156 151.5 142.5 151.5 124.5 115.5 124.5 147 120 151.5 106.5 151.5"/><polygon class="cls-1" points="399 151.5 399 84 403.5 79.5 417 79.5 435 115.5 435 84 439.5 79.5 453 79.5 453 147 448.5 151.5 435 151.5 417 115.5 417 147 412.5 151.5 399 151.5"/><polygon class="cls-1" points="267 79.5 253.5 79.5 249 84 249 133.5 235.5 133.5 235.5 84 231 79.5 217.5 79.5 217.5 147 222 151.5 262.5 151.5 267 147 267 79.5"/><polygon class="cls-1" points="193.5 97.5 193.5 102 211.5 102 211.5 84 207 79.5 171 79.5 166.5 84 166.5 111 171 115.5 193.5 129 193.5 133.5 184.5 133.5 184.5 129 166.5 129 166.5 147 171 151.5 207 151.5 211.5 147 211.5 120 207 115.5 184.5 102 184.5 97.5 193.5 97.5"/><polygon class="cls-1" points="459 84 459 147 463.5 151.5 504 151.5 508.5 147 508.5 115.5 486 115.5 486 124.5 490.5 124.5 490.5 133.5 481.5 133.5 477 129 477 102 481.5 97.5 490.5 97.5 490.5 102 508.5 102 508.5 84 504 79.5 463.5 79.5 459 84"/><polygon class="cls-1" points="357 79.5 393 79.5 393 93 388.5 97.5 384 97.5 384 133.5 388.5 133.5 393 138 393 151.5 357 151.5 357 138 361.5 133.5 366 133.5 366 97.5 361.5 97.5 357 93 357 79.5"/><path class="cls-1" d="M343.5,72h12l4.5-4.8L339,0H321L300,67.2l4.5,4.8h12l4.22-13.5h18.56ZM326.34,40.5,330,28.8l3.66,11.7Z"/></g></g></svg>